# AST/ASF file generated using VICON BodyLanguage
# -----------------------------------------------
:version 1.10
:name VICON
:units
  mass 1.0
  length 0.45
  angle deg
:documentation
   .ast/.asf automatically generated from VICON data using
   VICON BodyBuilder and BodyLanguage model FoxedUp or BRILLIANT.MOD
:root
   order TX TY TZ RX RY RZ
   axis XYZ
   position 0 0 0  
   orientation 0 0 0 
:bonedata
  begin
     id 1 
     name lhipjoint
     direction 0.575328 -0.747301 0.332475 
     length 2.40933 
     axis 0 0 0  XYZ
  end
  begin
     id 2 
     name lfemur
     direction 0.34202 -0.939693 0  
     length 7.31453  
     axis 0 0 20  XYZ
    dof rx ry rz
    limits (-160.0 20.0)
           (-70.0 70.0)
           (-60.0 70.0)
  end
  begin
     id 3 
     name ltibia
     direction 0.34202 -0.939693 0   
     length 7.82185   
     axis 0 0 20   XYZ
    dof rx
    limits (-10.0 170.0)
  end
  begin
     id 4 
     name lfoot
     direction 0.0795993 -0.218697 0.972541   
     length 2.19173   
     axis -90 7.62852e-016 20   XYZ
    dof rx rz
    limits (-45.0 90.0)
           (-70.0 20.0)
  end
  begin
     id 5 
     name ltoes
     direction 1.53537e-011 -4.21894e-011 1   
     length 1.10023   
     axis -90 7.62852e-016 20   XYZ
    dof rx
    limits (-90.0 20.0)
  end
  begin
     id 6 
     name rhipjoint
     direction -0.513884 -0.783789 0.348708   
     length 2.29716  
     axis 0 0 0  XYZ 
  end
  begin
     id 7 
     name rfemur
     direction -0.34202 -0.939693 0   
     length 7.59573   
     axis 0 0 -20   XYZ
    dof rx ry rz
    limits (-160.0 20.0)
           (-70.0 70.0)
           (-70.0 60.0)
  end
  begin
     id 8 
     name rtibia
     direction -0.34202 -0.939693 0   
     length 7.66402   
     axis 0 0 -20   XYZ
    dof rx
    limits (-10.0 170.0)
 end
 begin
     id 9 
     name rfoot
     direction -0.137793 -0.378584 0.915253   
     length 2.27056  
     axis -90 -7.62852e-016 -20   XYZ
    dof rx rz
    limits (-45.0 90.0)
           (-20.0 70.0)
  end
  begin
     id 10 
     name rtoes
     direction -1.53493e-011 -4.22159e-011 1   
     length 1.11766   
     axis -90 -7.62852e-016 -20   XYZ
    dof rx
    limits (-90.0 20.0)
  end
  begin
     id 11 
     name lowerback
     direction -0.00732775 0.998356 -0.05685   
     length 2.16513   
     axis 0 0 0   XYZ
    dof rx ry rz
    limits (-20.0 45.0)
           (-30.0 30.0)
           (-30.0 30.0)
  end
  begin
     id 12 
     name upperback
     direction 0.0218081 0.999627 -0.0164647   
     length 2.16755   
     axis 0 0 0   XYZ
    dof rx ry rz
    limits (-20.0 45.0)
           (-30.0 30.0)
           (-30.0 30.0)
  end
  begin
     id 13 
     name thorax
     direction 0.02365 0.999661 0.0108914   
     length 2.16932   
     axis 0 0 0   XYZ
    dof rx ry rz
    limits (-20.0 45.0)
           (-30.0 30.0)
           (-30.0 30.0)
  end
  begin
     id 14 
     name lowerneck
     direction -0.0523929 0.978385 0.200044   
     length 1.63877   
     axis 0 0 0   XYZ
    dof rx ry rz
    limits (-20.0 45.0)
           (-30.0 30.0)
           (-30.0 30.0)
  end
  begin
     id 15 
     name upperneck
     direction 0.0448674 0.981321 -0.187074   
     length 1.69014   
     axis 0 0 0   XYZ
    dof rx ry rz
    limits (-20.0 45.0)
           (-30.0 30.0)
           (-30.0 30.0)
  end
  begin
     id 16
     name head
     direction 0.0199089 0.996118 -0.0857429  
     length 1.70094  
     axis 0 0 0   XYZ
    dof rx ry rz
    limits (-20.0 45.0)
           (-30.0 30.0)
           (-30.0 30.0)
  end
  begin
     id 17 
     name lclavicle
     direction 0.940366 0.30191 -0.156722  
     length 3.37521  
     axis 0 0 0   XYZ
    dof ry rz
    limits (-20.0 10.0)
           (0.0 20.0)
  end
  begin
     id 18 
     name lhumerus
     direction 1 -4.4897e-011 -1.7911e-027   
     length 5.25287   
     axis 180 -30 -90   XYZ
    dof rx ry rz
    limits (-60.0 90.0)
           (-90.0 90.0)
           (-90.0 90.0)
  end
  begin
     id 19
     name lradius
     direction 1 -4.48951e-011 1.04424e-027   
     length 3.51014   
     axis 180 -30 -90   XYZ
    dof rx
    limits (-10.0 170.0)
  end
  begin
     id 20
     name lwrist
     direction 1 -4.48997e-011 -9.5942e-028   
     length 1.75507   
     axis 8.48502e-016 90 90   XYZ
    dof ry
    limits (-180.0 0.0)
 end
  begin
     id 21 
     name lhand
     direction 1 -4.48831e-011 -1.90777e-027   
     length 0.706179   
     axis 1.22306e-015 90 90   XYZ
    dof rx rz
    limits (-90.0 90.0)
           (-45.0 45.0)
  end
  begin
     id 22 
     name lfingers
     direction 1 -4.49108e-011 -3.85244e-027   
     length 0.569339   
     axis 2.44611e-015 90 90   XYZ
    dof rx
    limits (0.0 90.0)
  end
  begin
     id 23
     name lthumb
     direction 0.707107 -6.34953e-011 0.707107   
     length 0.817461   
     axis -90 45 -1.62303e-014   XYZ
    dof rx rz
    limits (-45.0 45.0)
           (-45.0 45.0)
  end
  begin
     id 24 
     name rclavicle
     direction -0.905329 0.382405 -0.184787   
     length 3.30787  
     axis 0 0 0   XYZ 
    dof ry rz
    limits (-10.0 20.0)
           (-20.0 0.0)
  end
  begin
     id 25 
     name rhumerus
     direction -1 -4.48953e-011 -9.15316e-029  
     length 5.28721   
     axis 180 30 90   XYZ
    dof rx ry rz
    limits (-90.0 60.0)
           (-90.0 90.0)
           (-90.0 90.0)
  end
  begin
     id 26 
     name rradius
     direction -1 -4.48987e-011 9.37824e-028   
     length 3.50544   
     axis 180 30 90   XYZ
    dof rx
    limits (-10.0 170.0)
  end
  begin
     id 27 
     name rwrist
     direction -1 -4.48967e-011 -9.58414e-028   
     length 1.75272   
     axis 8.48502e-016 -90 -90   XYZ
    dof ry
    limits (-180.0 0.0)
  end
  begin
     id 28
     name rhand
     direction -1 -4.48904e-011 -1.91266e-027   
     length 0.884996   
     axis 1.22306e-015 -90 -90   XYZ
    dof rx rz
    limits (-90.0 90.0)
           (-45.0 45.0)
  end
  begin
     id 29
     name rfingers
     direction -1 -4.4909e-011 -3.85015e-027   
     length 0.713507   
     axis 2.44611e-015 -90 -90   XYZ
    dof rx
    limits (0.0 90.0)
  end
  begin
     id 30
     name rthumb
     direction -0.707107 -6.34853e-011 0.707107   
     length 1.02446   
     axis -90 -45 1.62303e-014   XYZ
    dof rx rz
    limits (-45.0 45.0)
           (-45.0 45.0)
  end
:hierarchy
  begin
    root lhipjoint rhipjoint lowerback
    lhipjoint lfemur
    lfemur ltibia
    ltibia lfoot
    lfoot ltoes
    rhipjoint rfemur
    rfemur rtibia
    rtibia rfoot
    rfoot rtoes
    lowerback upperback
    upperback thorax
    thorax lowerneck lclavicle rclavicle
    lowerneck upperneck
    upperneck head
    lclavicle lhumerus
    lhumerus lradius
    lradius lwrist
    lwrist lhand lthumb
    lhand lfingers
    rclavicle rhumerus
    rhumerus rradius
    rradius rwrist
    rwrist rhand rthumb
    rhand rfingers
  end

#!OML:ASF F:\twosubjects\two\Thursday\Session 1\justin.ASF
:FULLY-SPECIFIED
:DEGREES
119
root 14.4749 17.75 -0.688165 5.65128 -43.8412 3.40331
lowerback 9.54375 1.61871 -0.443816
upperback 2.78875 2.12575 2.15599
thorax -2.55037 1.03717 2.23581
lowerneck -18.5508 -7.27963 -12.6971
upperneck 15.3663 -7.4363 4.822
head 8.50185 -3.79117 2.69521
rclavicle 4.45278e-014 -8.74653e-015
rhumerus -25.4702 -20.6456 -64.6741
rradius 33.8888
rwrist -1.72697
rhand -13.0931 10.9833
rfingers 7.12502
rthumb 13.0035 -18.5914
lclavicle 4.45278e-014 -8.74653e-015
lhumerus -33.3235 15.0356 74.5157
lradius 40.9602
lwrist -4.73346
lhand -3.89665 35.5537
lfingers 7.12502
lthumb 21.8532 64.3397
rfemur -22.2027 -6.35296 10.5777
rtibia 42.3313
rfoot -21.1083 -15.3285
rtoes -24.2512
lfemur -22.1522 6.09355 -6.75334
ltibia 36.7691
lfoot -7.30295 6.50615
ltoes -2.69139
120
root 14.543 17.7321 -0.637065 5.81151 -43.9431 3.34163
lowerback 9.70519 1.49309 -0.642773
upperback 2.81296 1.94187 2.23614
thorax -2.61551 0.945809 2.44979
lowerneck -18.745 -7.14373 -12.5816
upperneck 15.2676 -7.25065 4.82074
head 8.47955 -3.69237 2.69964
rclavicle 7.87187e-014 -2.14687e-014
rhumerus -24.9452 -20.7668 -64.5979
rradius 33.6247
rwrist -1.7666
rhand -13.15 11.2006
rfingers 7.12502
rthumb 12.9486 -18.3777
lclavicle 7.87187e-014 -2.14687e-014
lhumerus -33.3193 15.1774 74.3765
lradius 41.2262
lwrist -4.53658
lhand -3.95893 35.5011
lfingers 7.12502
lthumb 21.7934 64.2941
rfemur -22.4537 -6.12358 10.3355
rtibia 42.4162
rfoot -20.9487 -15.5212
rtoes -24.7288
lfemur -21.9263 5.65415 -6.10863
ltibia 35.4646
lfoot -7.05429 7.28648
ltoes -5.13187
121
root 14.615 17.7316 -0.576091 5.66145 -43.9649 3.57331
lowerback 9.94707 1.33214 -0.873022
upperback 2.91372 1.70138 2.17919
thorax -2.63735 0.825294 2.54622
lowerneck -18.9838 -6.92799 -11.9613
upperneck 15.0045 -7.00342 4.40035
head 8.36776 -3.57424 2.49095
rclavicle -5.64548e-014 -2.62396e-014
rhumerus -24.3913 -20.6917 -64.718
rradius 33.5131
rwrist -2.23005
rhand -13.0448 11.5525
rfingers 7.12502
rthumb 13.05 -18.0193
lclavicle -5.64548e-014 -2.62396e-014
lhumerus -33.1632 14.7971 74.3191
lradius 41.5158
lwrist -3.23159
lhand -4.60269 35.6253
lfingers 7.12502
lthumb 21.1751 64.4889
rfemur -22.506 -5.88305 9.7854
rtibia 42.5071
rfoot -21.0351 -15.4848
rtoes -24.1173
lfemur -21.5119 5.01635 -5.78003
ltibia 34.0451
lfoot -7.08962 7.9736
ltoes -6.56551
122
root 14.6832 17.7336 -0.513621 5.32691 -43.9138 4.17476
lowerback 10.1576 1.28128 -1.47552
upperback 2.90321 1.57462 2.19981
thorax -2.77382 0.76532 2.92046
lowerneck -18.991 -6.91447 -12.3617
upperneck 14.8787 -6.93243 4.72223
head 8.34781 -3.52915 2.67328
rclavicle 6.91771e-014 6.36111e-015
rhumerus -24.0584 -20.8046 -64.3114
rradius 33.4329
rwrist -2.69101
rhand -12.8002 11.8442
rfingers 7.12502
rthumb 13.2858 -17.7124
lclavicle 6.91771e-014 6.36111e-015
lhumerus -33.1893 14.5361 74.5601
lradius 41.8431
lwrist -2.94497
lhand -5.00174 35.8402
lfingers 7.12502
lthumb 20.7917 64.7462
rfemur -22.6507 -5.98031 8.96042
rtibia 42.6552
rfoot -20.9895 -15.3621
rtoes -23.0057
lfemur -21.1772 4.54296 -5.82609
ltibia 32.6403
lfoot -7.13642 8.25141
ltoes -7.61731
123
root 14.748 17.7109 -0.453145 5.28331 -44.0115 4.26839
lowerback 10.3767 1.38499 -1.91315
upperback 2.89507 1.6717 2.4047
thorax -2.92689 0.816473 3.36633
lowerneck -18.8238 -7.01624 -13.1342
upperneck 14.7275 -7.01864 5.44557
head 8.33331 -3.5414 3.03234
rclavicle -1.32788e-013 4.29375e-014
rhumerus -24.0609 -21.0882 -63.6051
rradius 33.6843
rwrist -3.04371
rhand -12.2952 11.5776
rfingers 7.12502
rthumb 13.7725 -17.9465
lclavicle -1.32788e-013 4.29375e-014
lhumerus -33.1345 13.963 75.1777
lradius 41.9949
lwrist -2.71425
lhand -6.51721 36.0141
lfingers 7.12502
lthumb 19.3351 65.0728
rfemur -22.7516 -5.82548 8.53987
rtibia 42.7437
rfoot -20.8373 -15.4851
rtoes -22.3092
lfemur -20.5869 4.41623 -5.41414
ltibia 31.332
lfoot -7.09913 7.93654
ltoes -9.11613
124
root 14.812 17.6917 -0.397395 5.44776 -44.3689 3.94881
lowerback 10.619 1.49153 -2.09099
upperback 2.97043 1.79166 2.5075
thorax -2.99908 0.875458 3.55568
lowerneck -19.1009 -6.95148 -12.607
upperneck 14.7963 -6.99125 5.20605
head 8.37113 -3.51878 2.86635
rclavicle -6.71892e-014 1.98785e-014
rhumerus -24.1525 -21.4607 -63.3861
rradius 34.1299
rwrist -3.11284
rhand -12.0203 11.384
rfingers 7.12502
rthumb 14.0375 -18.122
lclavicle -6.71892e-014 1.98785e-014
lhumerus -32.9476 13.5975 75.3121
lradius 42.066
lwrist -2.55274
lhand -7.70454 35.9212
lfingers 7.12502
lthumb 18.1931 65.0904
rfemur -22.7513 -5.28901 8.44814
rtibia 42.734
rfoot -20.7151 -15.6921
rtoes -23.0003
lfemur -19.9697 4.52769 -4.60058
ltibia 30.1274
lfoot -7.12066 6.90931
ltoes -7.97434
125
root 14.8815 17.6823 -0.338946 5.38088 -44.6146 4.03805
lowerback 10.8445 1.54121 -2.29357
upperback 3.00597 1.82817 2.41421
thorax -3.09192 0.89467 3.56443
lowerneck -19.2746 -7.01311 -12.3788
upperneck 14.8154 -7.10408 5.14867
head 8.40609 -3.5618 2.79109
rclavicle 7.39479e-014 8.74653e-015
rhumerus -24.2276 -21.3951 -63.3003
rradius 34.4113
rwrist -3.57704
rhand -12.6771 11.7766
rfingers 7.12502
rthumb 13.4045 -17.7722
lclavicle 7.39479e-014 8.74653e-015
lhumerus -32.7697 13.5746 75.0237
lradius 42.1907
lwrist -3.33233
lhand -6.41211 35.6859
lfingers 7.12502
lthumb 19.4362 64.7345
rfemur -22.7722 -4.93385 8.03428
rtibia 42.6574
rfoot -20.439 -15.9241
rtoes -24.1708
lfemur -19.8186 4.18141 -4.1548
ltibia 29.0647
lfoot -6.38099 5.97811
ltoes -8.437
126
root 14.961 17.6693 -0.26369 5.45231 -44.2744 4.18063
lowerback 10.8496 1.36071 -2.13181
upperback 2.98707 1.60426 2.32688
thorax -3.0898 0.783323 3.41167
lowerneck -19.0376 -7.1215 -12.8103
upperneck 14.434 -7.23455 5.56695
head 8.2819 -3.60363 2.9882
rclavicle -2.70347e-014 2.70347e-014
rhumerus -24.0843 -21.5361 -63.0034
rradius 34.3876
rwrist -3.53812
rhand -13.1829 12.317
rfingers 7.12502
rthumb 12.9168 -17.2632
lclavicle -2.70347e-014 2.70347e-014
lhumerus -32.6426 13.365 74.9469
lradius 42.3882
lwrist -3.81378
lhand -5.52511 35.4058
lfingers 7.12502
lthumb 20.2888 64.3661
rfemur -22.8334 -5.03468 7.55454
rtibia 42.5594
rfoot -20.1362 -16.2842
rtoes -24.3579
lfemur -20.1763 3.22764 -3.9
ltibia 28.1836
lfoot -5.2537 5.37672
ltoes -12.6633
127
root 15.0502 17.6548 -0.180588 5.57047 -43.9036 4.31551
lowerback 10.8628 1.08824 -1.72095
upperback 2.96918 1.27863 2.03649
thorax -3.07603 0.620414 2.9191
lowerneck -19.0328 -7.03156 -12.6601
upperneck 14.1878 -7.20852 5.89843
head 8.20187 -3.54645 3.08257
rclavicle -1.59028e-014 2.94201e-014
rhumerus -23.9508 -22.5091 -63.0675
rradius 34.4429
rwrist -2.90586
rhand -13.1336 12.1479
rfingers 7.12502
rthumb 12.9645 -17.4294
lclavicle -1.59028e-014 2.94201e-014
lhumerus -32.4513 12.6956 74.7135
lradius 42.5936
lwrist -3.59031
lhand -6.21574 35.2802
lfingers 7.12502
lthumb 19.625 64.3097
rfemur -22.9526 -5.1854 7.03927
rtibia 42.5298
rfoot -19.9253 -16.6542
rtoes -24.5761
lfemur -20.463 2.29397 -3.67539
ltibia 27.4119
lfoot -4.47202 4.6907
ltoes -13.6475
128
root 15.1448 17.6402 -0.101917 5.54377 -43.8773 4.51099
lowerback 11.1596 1.1141 -2.03124
upperback 2.90816 1.27853 2.10606
thorax -3.31068 0.625565 3.16433
lowerneck -19.0282 -7.00686 -12.6512
upperneck 14.0099 -7.19891 6.0422
head 8.14525 -3.52484 3.13193
rclavicle -6.95746e-014 2.38542e-015
rhumerus -23.9716 -23.1278 -62.6645
rradius 34.6804
rwrist -3.31642
rhand -13.6537 11.7728
rfingers 7.12502
rthumb 12.463 -17.8356
lclavicle -6.95746e-014 2.38542e-015
lhumerus -32.3073 12.3035 74.9577
lradius 42.8019
lwrist -3.48506
lhand -5.981 35.3248
lfingers 7.12502
lthumb 19.8506 64.3311
rfemur -23.1441 -5.17349 6.45845
rtibia 42.6344
rfoot -19.6676 -16.7774
rtoes -25.3216
lfemur -20.491 1.75828 -3.55475
ltibia 26.7728
lfoot -3.27368 3.88207
ltoes -18.6046
129
root 15.2432 17.6189 -0.0244098 5.64117 -43.9164 4.5484
lowerback 11.386 1.22213 -2.21211
upperback 2.88173 1.40256 2.23542
thorax -3.47874 0.690625 3.38235
lowerneck -19.0164 -7.11345 -12.6945
upperneck 13.7866 -7.32814 6.05223
head 8.08257 -3.58429 3.12388
rclavicle 2.70347e-014 -3.33958e-014
rhumerus -24.058 -23.6371 -62.0882
rradius 34.9472
rwrist -3.66391
rhand -14.16 11.7046
rfingers 7.12502
rthumb 11.9749 -17.9329
lclavicle 2.70347e-014 -3.33958e-014
lhumerus -32.0836 12.1619 75.3117
lradius 43.0505
lwrist -3.47844
lhand -5.50683 35.3139
lfingers 7.12502
lthumb 20.3064 64.2724
rfemur -23.4269 -5.41576 5.99672
rtibia 42.7809
rfoot -19.4847 -16.487
rtoes -25.701
lfemur -20.6869 1.42079 -3.37235
ltibia 26.4903
lfoot -2.76502 3.01451
ltoes -27.313
130
root 15.3489 17.5798 0.0602864 5.87609 -44.0369 4.32887
lowerback 11.4531 1.28902 -2.31806
upperback 3.02121 1.48721 2.61007
thorax -3.38869 0.728492 3.82405
lowerneck -19.235 -7.171 -12.9585
upperneck 13.6039 -7.26269 5.86821
head 8.05468 -3.57874 3.1067
rclavicle 1.43125e-014 2.8625e-014
rhumerus -23.973 -22.8774 -61.5555
rradius 35.7107
rwrist -4.70293
rhand -14.676 10.9
rfingers 7.12502
rthumb 11.4772 -18.7658
lclavicle 1.43125e-014 2.8625e-014
lhumerus -31.7431 12.0941 76.0788
lradius 43.2731
lwrist -3.21088
lhand -6.06543 35.4409
lfingers 7.12502
lthumb 19.7695 64.4555
rfemur -23.7017 -5.71604 5.64574
rtibia 42.9454
rfoot -19.4829 -15.9527
rtoes -25.1316
lfemur -20.5462 0.31405 -2.65522
ltibia 26.5529
lfoot -4.19165 2.51843
ltoes -23.2133
131
root 15.4567 17.548 0.150969 6.03739 -44.1283 4.10837
lowerback 11.639 1.21283 -1.98602
upperback 3.11633 1.41922 2.6352
thorax -3.37874 0.689921 3.67016
lowerneck -19.4116 -7.07819 -12.8261
upperneck 13.503 -7.14104 5.85115
head 8.03247 -3.51121 3.09421
rclavicle -3.57812e-014 -1.59028e-015
rhumerus -24.2628 -21.1199 -61.6375
rradius 36.9373
rwrist -6.85046
rhand -15.4832 9.92703
rfingers 7.12502
rthumb 10.6986 -19.7806
lclavicle -3.57812e-014 -1.59028e-015
lhumerus -31.5644 11.739 76.3384
lradius 43.597
lwrist -2.78224
lhand -6.39197 35.677
lfingers 7.12502
lthumb 19.4555 64.7236
rfemur -23.812 -5.79737 5.26274
rtibia 43.1029
rfoot -19.4497 -15.6719
rtoes -24.6236
lfemur -20.6381 0.471792 -2.51123
ltibia 26.9066
lfoot -5.4426 0.960453
ltoes -27.3463
132
root 15.5613 17.5228 0.239929 6.18528 -44.176 4.15432
lowerback 11.7732 1.1834 -1.8988
upperback 3.02159 1.38887 2.56067
thorax -3.54525 0.678408 3.54494
lowerneck -19.4562 -7.02129 -12.4212
upperneck 13.438 -7.11611 5.5728
head 7.98887 -3.50353 2.93942
rclavicle 2.90226e-014 4.13472e-014
rhumerus -24.971 -18.8052 -61.5781
rradius 38.2146
rwrist -9.31942
rhand -16.0929 9.41712
rfingers 7.12502
rthumb 10.1105 -20.32
lclavicle 2.90226e-014 4.13472e-014
lhumerus -31.6854 11.6364 76.4248
lradius 44.0379
lwrist -2.87469
lhand -6.32727 35.6676
lfingers 7.12502
lthumb 19.5177 64.7079
rfemur -24.0822 -5.68816 4.72879
rtibia 43.287
rfoot -19.3654 -15.7933
rtoes -25.1441
lfemur -21.0892 0.984354 -2.73062
ltibia 27.5299
lfoot -6.57539 -0.615621
ltoes -33.8279
133
root 15.6657 17.4914 0.325612 6.23391 -44.3189 4.39314
lowerback 11.8555 1.14281 -2.33925
upperback 2.96172 1.28657 2.64
thorax -3.65591 0.63377 3.89359
lowerneck -19.3481 -6.95891 -12.3724
upperneck 13.0431 -7.03023 5.47651
head 7.82461 -3.46592 2.9145
rclavicle 4.85035e-014 -4.77083e-014
rhumerus -24.8804 -17.9517 -61.3403
rradius 38.4666
rwrist -10.0987
rhand -16.1748 9.45578
rfingers 7.12502
rthumb 10.0316 -20.2851
lclavicle 4.85035e-014 -4.77083e-014
lhumerus -31.787 11.6996 76.5654
lradius 44.4552
lwrist -2.85986
lhand -6.13527 35.5284
lfingers 7.12502
lthumb 19.7023 64.55
rfemur -24.5193 -5.57591 4.06125
rtibia 43.4688
rfoot -19.0878 -15.9605
rtoes -26.3058
lfemur -21.702 1.62208 -3.21634
ltibia 28.3737
lfoot -7.69477 -1.84046
ltoes -38.4546
